<?xml version="1.0" encoding="utf-8"?>
<!-- Generator: Adobe Illustrator 17.0.2, SVG Export Plug-In . SVG Version: 6.00 Build 0)  -->
<!DOCTYPE svg PUBLIC "-//W3C//DTD SVG 1.1//EN" "http://www.w3.org/Graphics/SVG/1.1/DTD/svg11.dtd">
<svg version="1.1" id="Layer_1" xmlns="http://www.w3.org/2000/svg" xmlns:xlink="http://www.w3.org/1999/xlink" x="0px" y="0px"
	 width="151.217px" height="216.859px" viewBox="0 0 151.217 216.859" enable-background="new 0 0 151.217 216.859"
	 xml:space="preserve">
<path d="M0,0c0,0,14.667,17.333,21,17.667c0,0,2,12.333,4.667,12.667v-11l23,17.667l-3.333,1.333h7.333c0,0,9,2.333,12,7
	c0,0,47-10.333,42.333-6c0,0,4.667-1,10.667-11.333c0,0,0.333,4.333,0,8.333c0,0,15.333-9.333,21-4.667c0,0-6.667,0.333-8.333,3
	c0,0,18,1.667,20.667,15l-7.667-3.333c0,0,8,7.667,7.667,16.333h-2c0,0,3.02,7,2.01,10.333c0,0-10.677-12.667-13.343-11.667
	c0,0,3.667,6,0,11.667l-2,22c0,0-1.333,6,8.667,6c0,0,4.333,5-4.333,12c0,0-0.667,7.333,1,8s-0.333,1.929-0.333,1.929l-3,1.404
	L139,126l-5.333,5.333c0,0,9.5,19.833-18.5,10l0.333,19.333l7,3.5c0,0,0.667,10.167,6.833,16.833l-3,0.833
	c0,0,9.667,18.833,14.833,23c0,0,2.833,12.667-19.167,12c0,0-6.833,0.833-26-13.5c0,0-14.45-12.667-20.392-11L61,192.167
	c0,0-20-5.167-5.833-20.5l11-9.667c0,0,1.5-15.167,3.667-16.333l4.667-1.333l0.167-2c0,0-9.667-1-16.5-25.667h-3.333
	c0,0-3.5-31.667-12.667-40c0,0-5.853-5.242-9.5-30C32.667,46.667,1.5,23,0,0z"/>
</svg>
